# Blender v2.93.0 OBJ File: 'shipwreck.blend'
# www.blender.org
mtllib beach.mtl
o beach_Mesh.002
v 6.758612 5.341974 0.105294
v 3.311898 8.133066 0.105295
v -1.068588 8.826866 0.105295
v -5.209101 7.237472 0.105294
v -8.000193 3.790759 0.105294
v -8.693994 -0.589727 0.105293
v -7.104598 -4.730241 0.105292
v -3.657885 -7.521331 0.105292
v 0.722600 -8.215133 0.105292
v 4.863113 -6.625738 0.105292
v 7.654205 -3.179025 0.105293
v 8.348005 1.201462 0.105294
v 2.627814 6.334691 0.000001
v 5.307831 4.164457 0.000000
v -0.778266 6.874161 0.000001
v -3.997753 5.638316 0.000000
v -6.707457 -0.447781 -0.000001
v -6.167987 2.958298 0.000000
v -5.471611 -3.667268 -0.000001
v -2.791594 -5.837503 -0.000001
v 0.614486 -6.376972 -0.000002
v 3.833972 -5.141126 -0.000001
v 6.543675 0.944971 -0.000000
v 6.004207 -2.461110 -0.000001
v 2.252063 -5.831560 -0.000001
v 2.897481 -7.692987 0.105292
v 4.979450 -3.849995 -0.000001
v 6.485544 -5.086108 0.105293
v 6.350655 -0.770220 -0.000001
v 8.289456 -1.034453 0.105293
v 5.998263 2.582547 -0.000000
v 7.825862 3.376342 0.105294
v 4.016700 5.309935 0.000000
v 5.218982 6.964404 0.105295
v 0.936924 6.681139 0.000001
v 1.167325 8.768317 0.105295
v -2.415844 6.328748 0.000001
v -3.243468 8.304724 0.105294
v -5.143230 4.347187 0.000000
v -6.831531 5.697844 0.105294
v -6.514435 1.267409 -0.000000
v -8.635444 1.646187 0.105293
v -6.162045 -2.085359 -0.000001
v -8.171850 -2.764606 0.105293
v -4.180482 -4.812746 -0.000001
v -5.564968 -6.352670 0.105292
v -1.100704 -6.183951 -0.000001
v -1.513313 -8.156584 0.105292
v 0.809877 -5.819295 0.261307
v 5.622466 -2.001432 0.263882
v 5.963212 1.142614 0.274210
v 4.707782 4.029265 0.283773
v 2.193239 5.915035 0.289636
v -0.931013 6.309785 0.289977
v -5.785156 2.571241 0.275612
v -6.063347 -0.581549 0.300684
v -4.835255 -3.470210 0.292119
v -2.325094 -5.361421 0.282929
v 0.708124 -5.126454 0.544597
v 4.978295 -1.756230 0.547277
v 5.295520 1.033189 0.550926
v 4.186008 3.603975 0.553142
v 1.947870 5.282059 0.553152
v -0.830985 5.625682 0.550834
v -5.119843 2.294951 0.542344
v -5.404970 -0.497519 0.556215
v -4.310483 -3.068417 0.554496
v -2.075927 -4.749825 0.552832
v 0.599472 -4.391835 0.820550
v 4.292832 -1.493933 0.822715
v 4.583995 0.918634 0.819675
v 3.629867 3.153556 0.814730
v 1.686107 4.611987 0.809204
v -0.726458 4.903142 0.804579
v -4.419819 2.005241 0.802414
v -4.710982 -0.407327 0.805455
v -3.756854 -2.642247 0.810400
v -1.813092 -4.100681 0.815925
v 0.402678 -3.126004 0.989391
v 3.092950 -1.017715 0.981217
v 3.305964 0.738669 0.974030
v 2.612238 2.366248 0.967205
v 1.197656 3.428912 0.962570
v -0.558746 3.641922 0.961367
v -3.249018 1.533635 0.969541
v -3.462032 -0.222749 0.976728
v -2.768306 -1.850330 0.983553
v -1.353724 -2.912994 0.988188
v 1.697269 0.500282 1.085890
v 0.590435 1.915402 1.084424
v -1.860629 -0.001688 1.085647
v -0.753796 -1.416810 1.087113
v 1.025152 -1.165827 1.087234
v 2.030272 -2.432284 0.986839
v 2.834396 -3.437701 0.823035
v 3.289557 -4.003754 0.548086
v 3.717434 -4.535469 0.265475
v -1.188514 1.664418 1.084302
v -2.186342 2.948203 0.963919
v -2.961383 3.949008 0.802094
v -3.417661 4.536303 0.546688
v -3.851010 5.093854 0.284454
vt 1.000000 0.500000
vt 0.792099 0.300000
vt 1.000000 0.300000
vt 0.328853 0.500000
vt 0.157941 0.300000
vt 0.315881 0.300000
vt 0.676704 0.500000
vt 0.505256 0.300000
vt 0.694630 0.300000
vt 0.362735 0.500000
vt 0.207195 0.300000
vt 0.414391 0.300000
vt 0.531602 0.495771
vt 0.741357 0.300000
vt 0.700340 0.500000
vt 0.849995 0.496472
vt 1.000000 0.300000
vt 1.000000 0.500000
vt 0.166051 0.496852
vt 0.339358 0.300000
vt 0.332630 0.500000
vt 0.665645 0.500000
vt 0.497141 0.300000
vt 0.654925 0.300000
vt 0.297568 0.500000
vt 0.127567 0.300000
vt 0.255134 0.300000
vt 0.634960 0.500000
vt 0.419666 0.300000
vt 0.584198 0.300000
vt 1.000000 0.500000
vt 0.827462 0.300000
vt 1.000000 0.300000
vt 1.000000 0.500000
vt 0.847315 0.300000
vt 1.000000 0.300000
vt 0.499138 0.496957
vt 0.833122 0.496804
vt 0.000000 0.500000
vt 0.148976 0.496369
vt 0.466195 0.495605
vt 0.817969 0.494536
vt 0.164843 0.493472
vt 0.000000 0.300000
vt 0.502785 0.493059
vt 0.837932 0.493640
vt 0.000000 0.500000
vt 0.180850 0.494748
vt 0.577874 0.300000
vt 0.870679 0.300000
vt -0.000000 0.500000
vt 0.169679 0.300000
vt 0.623330 0.882610
vt 0.706862 0.931206
vt 0.698024 0.961469
vt 0.575327 0.798709
vt 0.600949 0.903940
vt 0.575657 0.702004
vt 0.545576 0.805994
vt 0.624305 0.618401
vt 0.546144 0.693594
vt 0.602538 0.596265
vt 0.581581 0.574905
vt 0.700078 0.539856
vt 0.813087 0.539584
vt 0.909483 0.598122
vt 0.805015 0.570747
vt 0.965448 0.695468
vt 0.888602 0.619456
vt 0.965191 0.807944
vt 0.936597 0.703430
vt 0.887462 0.883657
vt 0.936049 0.800098
vt 0.803507 0.931566
vt 0.720710 0.881367
vt 0.790892 0.881554
vt 0.659987 0.846099
vt 0.625055 0.785159
vt 0.625280 0.714922
vt 0.721562 0.619295
vt 0.791758 0.619609
vt 0.852409 0.654909
vt 0.887277 0.715821
vt 0.887011 0.785992
vt 0.851764 0.846660
vt 0.738316 0.681758
vt 0.811027 0.961865
vt 0.708245 0.570281
vt 0.660609 0.654205
vt 0.687860 0.731981
vt 0.706120 0.800801
vt 0.774838 0.819372
vt 0.825278 0.769160
vt 0.807014 0.700361
vt 0.052271 0.878274
vt 0.043050 0.810343
vt 0.096326 0.908602
vt 0.041521 0.698966
vt 0.015693 0.763101
vt 0.095798 0.601674
vt 0.041283 0.644963
vt 0.122332 0.555598
vt 0.190584 0.542126
vt 0.236697 0.519006
vt 0.302590 0.542496
vt 0.399763 0.597681
vt 0.353981 0.544763
vt 0.442600 0.625827
vt 0.455011 0.694728
vt 0.455485 0.806143
vt 0.479213 0.740621
vt 0.401104 0.903066
vt 0.453878 0.858563
vt 0.305862 0.960393
vt 0.373069 0.948008
vt 0.194396 0.962680
vt 0.258488 0.984900
vt 0.141006 0.959344
vt 0.087622 0.928301
vt 0.021619 0.824519
vt 0.015761 0.701097
vt 0.072278 0.591353
vt 0.175806 0.524769
vt 0.298383 0.519180
vt 0.407231 0.575877
vt 0.473260 0.679477
vt 0.479213 0.802547
vt 0.422983 0.912201
vt 0.319542 0.978957
vt 0.196722 0.984849
vt 0.909755 0.906480
vt 0.931243 0.928318
vt 0.818341 0.991027
vt 0.000000 0.300000
vt 0.000000 0.500000
vt 0.000000 0.300000
vt 0.000000 0.300000
vt 0.689508 0.990509
vt 0.579436 0.924360
vt 0.517001 0.812920
vt 0.517777 0.685451
vt 0.692237 0.510401
vt 0.820903 0.509533
vt 0.929604 0.577500
vt 0.993250 0.687733
vt 0.993250 0.815432
vn 0.1522 0.3888 0.9087
vn -0.0337 -0.0404 0.9986
vn -0.0207 -0.0494 0.9986
vn -0.0744 0.4194 0.9048
vn -0.0087 -0.0505 0.9987
vn 0.0057 -0.0530 0.9986
vn -0.2825 0.3245 0.9027
vn 0.0184 -0.0477 0.9987
vn 0.0309 -0.0424 0.9986
vn -0.3151 0.1672 0.9342
vn 0.0502 -0.0080 0.9987
vn 0.0525 0.0054 0.9986
vn -0.2217 -0.2480 0.9431
vn 0.0434 0.0302 0.9986
vn -0.2200 0.1306 0.9667
vn -0.0639 -0.3175 0.9461
vn 0.0232 0.0492 0.9985
vn -0.2527 0.0065 0.9675
vn 0.1062 -0.3083 0.9453
vn -0.0046 0.0557 0.9984
vn -0.2405 -0.1286 0.9621
vn -0.0059 -0.3550 0.9348
vn -0.0198 0.0520 0.9985
vn -0.0341 0.0471 0.9983
vn 0.4015 0.0466 0.9147
vn -0.0553 0.0087 0.9984
vn -0.0574 -0.0062 0.9983
vn 0.3254 0.2481 0.9125
vn -0.0513 -0.0198 0.9985
vn -0.0439 -0.0334 0.9985
vn 0.3721 -0.1593 0.9144
vn -0.0437 0.0354 0.9984
vn -0.0534 0.0237 0.9983
vn -0.2141 0.3336 0.9181
vn 0.0393 -0.0318 0.9987
vn 0.0477 -0.0213 0.9986
vn -0.1215 -0.2258 0.9666
vn 0.0074 -0.2568 0.9664
vn 0.1380 -0.2224 0.9651
vn 0.2334 -0.1235 0.9645
vn 0.3171 0.1460 0.9371
vn 0.2043 0.2939 0.9338
vn 0.1281 0.2490 0.9600
vn -0.0133 0.2817 0.9594
vn -0.1452 0.2269 0.9630
vn 0.0471 0.0188 0.9987
vn 0.0321 0.0408 0.9986
vn 0.0076 0.0529 0.9986
vn 0.2328 -0.1154 0.9657
vn 0.3746 -0.1476 0.9154
vn 0.3283 -0.0369 0.9438
vn 0.2550 0.0172 0.9668
vn 0.3022 0.1312 0.9442
vn 0.2064 0.1418 0.9681
vn 0.1930 0.2595 0.9463
vn 0.1029 0.2239 0.9692
vn 0.0368 0.3130 0.9490
vn -0.0602 0.4254 0.9030
vn -0.1344 0.3676 0.9202
vn -0.1235 0.3039 0.9447
vn -0.3254 0.0303 0.9451
vn -0.3119 0.0373 0.9494
vn -0.3454 0.1402 0.9279
vn -0.2974 -0.1254 0.9465
vn -0.3795 -0.0519 0.9237
vn -0.2000 -0.2640 0.9435
vn -0.3109 -0.2410 0.9194
vn -0.1145 -0.2376 0.9646
vn -0.1512 -0.3707 0.9164
vn 0.1776 -0.0530 0.9827
vn 0.0674 -0.0659 0.9955
vn 0.0945 -0.1171 0.9886
vn 0.0911 -0.0290 0.9954
vn 0.1025 0.0840 0.9912
vn 0.0525 0.1353 0.9894
vn -0.1082 0.0651 0.9920
vn -0.0707 0.0759 0.9946
vn -0.0990 0.0415 0.9942
vn -0.1021 -0.0190 0.9946
vn -0.0843 -0.0626 0.9945
vn -0.0314 -0.0942 0.9951
vn -0.0254 0.0346 0.9991
vn 0.2905 -0.2122 0.9330
vn -0.0169 0.1751 0.9844
vn -0.0195 0.1364 0.9905
vn 0.0152 0.0405 0.9991
vn 0.0390 0.0079 0.9992
vn 0.0230 -0.0274 0.9994
vn -0.0142 -0.0324 0.9994
vn -0.0389 -0.0031 0.9992
vn -0.3907 0.0015 0.9205
vn -0.4384 0.0741 0.8957
vn -0.3324 -0.1969 0.9224
vn -0.1877 -0.3390 0.9219
vn -0.0005 -0.3991 0.9169
vn 0.2041 -0.3445 0.9163
vn 0.3513 -0.2024 0.9141
vn 0.4053 0.0002 0.9142
vn 0.3529 0.1987 0.9143
vn 0.2124 0.3455 0.9141
vn -0.1846 0.3630 0.9133
vn 0.0646 -0.4540 0.8887
usemtl environmentAtlas_m
s 1
f 13/1/1 34/2/2 2/3/3
f 15/4/4 36/5/5 3/6/6
f 16/7/7 38/8/8 4/9/9
f 17/10/10 42/11/11 6/12/12
f 43/13/13 7/14/14 19/15/15
f 45/16/16 8/17/17 20/18/18
f 47/19/19 9/20/20 21/21/21
f 22/22/22 26/23/23 10/24/24
f 23/25/25 30/26/26 12/27/27
f 14/28/28 32/29/29 1/30/30
f 24/31/31 28/32/32 11/33/33
f 18/34/34 40/35/35 5/36/36
f 21/21/21 26/23/23 25/37/37
f 22/22/22 28/32/32 27/38/38
f 24/39/31 30/26/26 29/40/39
f 23/25/25 32/29/29 31/41/40
f 33/42/41 1/30/30 34/2/2
f 35/43/42 2/44/3 36/5/5
f 15/4/4 38/8/8 37/45/43
f 16/7/7 40/35/35 39/46/44
f 18/47/34 42/11/11 41/48/45
f 17/10/10 44/49/46 43/13/13
f 19/15/15 46/50/47 45/16/16
f 20/51/18 48/52/48 47/19/19
f 71/53/49 70/54/50 60/55/51
f 72/56/52 71/53/49 61/57/53
f 73/58/54 72/56/52 62/59/55
f 74/60/56 73/58/54 63/61/57
f 64/62/58 54/63/59 101/64/60
f 65/65/61 66/66/62 75/67/63
f 66/66/62 67/68/64 76/69/65
f 67/68/64 68/70/66 77/71/67
f 69/72/68 78/73/69 68/70/66
f 95/74/70 80/75/71 94/76/72
f 70/54/50 81/77/73 80/75/71
f 72/56/52 81/77/73 71/53/49
f 73/58/54 82/78/74 72/56/52
f 74/60/56 83/79/75 73/58/54
f 99/80/76 75/67/63 85/81/77
f 75/67/63 86/82/78 85/81/77
f 76/69/65 87/83/79 86/82/78
f 77/71/67 88/84/80 87/83/79
f 78/73/69 79/85/81 88/84/80
f 98/86/82 99/80/76 85/81/77
f 69/72/68 94/76/72 79/85/81
f 60/55/51 70/54/50 96/87/83
f 100/88/84 84/89/85 74/60/56
f 65/65/61 75/67/63 100/88/84
f 90/90/86 84/89/85 98/86/82
f 89/91/87 82/78/74 90/90/86
f 93/92/88 80/75/71 89/91/87
f 79/85/81 93/92/88 92/93/89
f 91/94/90 87/83/79 92/93/89
f 93/92/88 89/91/87 90/90/86
f 41/95/45 56/96/91 55/97/92
f 57/98/93 56/96/91 43/99/13
f 58/100/94 57/98/93 45/101/16
f 47/102/19 49/103/95 58/100/94
f 25/104/37 97/105/96 49/103/95
f 50/106/97 97/105/96 27/107/38
f 29/108/39 51/109/98 50/106/97
f 52/110/99 51/109/98 31/111/40
f 53/112/100 52/110/99 33/113/41
f 54/114/59 53/112/100 35/115/42
f 102/116/101 54/114/59 37/117/43
f 55/97/92 102/116/101 39/118/44
f 18/119/34 41/95/45 55/97/92
f 41/95/45 17/120/10 56/96/91
f 43/99/13 19/121/15 57/98/93
f 20/122/18 47/102/19 58/100/94
f 21/123/21 25/104/37 49/103/95
f 25/104/37 22/124/22 97/105/96
f 24/125/31 29/108/39 50/106/97
f 29/108/39 23/126/25 51/109/98
f 31/111/40 14/127/28 52/110/99
f 33/113/41 13/128/1 53/112/100
f 13/128/1 35/115/42 53/112/100
f 35/115/42 15/129/4 54/114/59
f 15/129/4 37/117/43 54/114/59
f 37/117/43 16/130/7 102/116/101
f 16/130/7 39/118/44 102/116/101
f 59/131/102 49/132/95 97/133/96
f 55/97/92 39/118/44 18/119/34
f 56/96/91 17/120/10 43/99/13
f 57/98/93 19/121/15 45/101/16
f 58/100/94 45/101/16 20/122/18
f 49/103/95 47/102/19 21/123/21
f 97/105/96 22/124/22 27/107/38
f 50/106/97 27/107/38 24/125/31
f 51/109/98 23/126/25 31/111/40
f 52/110/99 14/127/28 33/113/41
f 13/1/1 33/42/41 34/2/2
f 15/4/4 35/43/42 36/5/5
f 16/7/7 37/45/43 38/8/8
f 17/10/10 41/48/45 42/11/11
f 43/13/13 44/49/46 7/14/14
f 45/16/16 46/50/47 8/17/17
f 47/19/19 48/52/48 9/20/20
f 22/22/22 25/37/37 26/23/23
f 23/25/25 29/40/39 30/26/26
f 14/28/28 31/41/40 32/29/29
f 24/31/31 27/38/38 28/32/32
f 18/34/34 39/46/44 40/35/35
f 21/21/21 9/20/20 26/23/23
f 22/22/22 10/24/24 28/32/32
f 24/39/31 11/134/33 30/26/26
f 23/25/25 12/27/27 32/29/29
f 33/42/41 14/28/28 1/30/30
f 35/43/42 13/135/1 2/44/3
f 15/4/4 3/6/6 38/8/8
f 16/7/7 4/9/9 40/35/35
f 18/47/34 5/136/36 42/11/11
f 17/10/10 6/12/12 44/49/46
f 19/15/15 7/14/14 46/50/47
f 20/51/18 8/137/17 48/52/48
f 60/55/51 50/138/97 61/57/53
f 50/138/97 51/139/98 61/57/53
f 61/57/53 71/53/49 60/55/51
f 61/57/53 51/139/98 62/59/55
f 51/139/98 52/140/99 62/59/55
f 62/59/55 72/56/52 61/57/53
f 62/59/55 52/140/99 63/61/57
f 52/140/99 53/141/100 63/61/57
f 63/61/57 73/58/54 62/59/55
f 63/61/57 53/141/100 64/62/58
f 53/141/100 54/63/59 64/62/58
f 64/62/58 74/60/56 63/61/57
f 102/142/101 101/64/60 54/63/59
f 101/64/60 100/88/84 64/62/58
f 100/88/84 74/60/56 64/62/58
f 65/65/61 55/143/92 56/144/91
f 56/144/91 66/66/62 65/65/61
f 66/66/62 76/69/65 75/67/63
f 66/66/62 56/144/91 57/145/93
f 57/145/93 67/68/64 66/66/62
f 67/68/64 77/71/67 76/69/65
f 67/68/64 57/145/93 58/146/94
f 58/146/94 68/70/66 67/68/64
f 68/70/66 78/73/69 77/71/67
f 68/70/66 58/146/94 59/131/102
f 58/146/94 49/132/95 59/131/102
f 59/131/102 69/72/68 68/70/66
f 95/74/70 70/54/50 80/75/71
f 70/54/50 71/53/49 81/77/73
f 72/56/52 82/78/74 81/77/73
f 73/58/54 83/79/75 82/78/74
f 74/60/56 84/89/85 83/79/75
f 99/80/76 100/88/84 75/67/63
f 75/67/63 76/69/65 86/82/78
f 76/69/65 77/71/67 87/83/79
f 77/71/67 78/73/69 88/84/80
f 78/73/69 69/72/68 79/85/81
f 86/82/78 91/94/90 85/81/77
f 91/94/90 98/86/82 85/81/77
f 69/72/68 95/74/70 94/76/72
f 95/74/70 96/87/83 70/54/50
f 96/87/83 97/133/96 60/55/51
f 97/133/96 50/138/97 60/55/51
f 100/88/84 99/80/76 84/89/85
f 100/88/84 101/64/60 65/65/61
f 101/64/60 102/142/101 65/65/61
f 102/142/101 55/143/92 65/65/61
f 83/79/75 84/89/85 90/90/86
f 84/89/85 99/80/76 98/86/82
f 81/77/73 82/78/74 89/91/87
f 82/78/74 83/79/75 90/90/86
f 94/76/72 80/75/71 93/92/88
f 80/75/71 81/77/73 89/91/87
f 92/93/89 88/84/80 79/85/81
f 79/85/81 94/76/72 93/92/88
f 86/82/78 87/83/79 91/94/90
f 87/83/79 88/84/80 92/93/89
f 90/90/86 98/86/82 91/94/90
f 91/94/90 92/93/89 90/90/86
f 92/93/89 93/92/88 90/90/86
f 97/133/96 96/87/83 59/131/102
f 96/87/83 95/74/70 59/131/102
f 95/74/70 69/72/68 59/131/102
