# Blender v2.93.0 OBJ File: 'triangle.blend'
# www.blender.org
mtllib triangle.mtl
o Cone
v 0.000000 1.000000 -1.000000
v 0.866025 -0.500000 -1.000000
v -0.866025 -0.500000 -1.000000
v 0.000000 0.000000 1.000000
vt 0.250000 0.490000
vt 0.250000 0.250000
vt 0.457846 0.130000
vt 0.750000 0.490000
vt 0.957846 0.130000
vt 0.542154 0.130000
vt 0.042154 0.130000
vn 0.8402 0.4851 0.2425
vn 0.0000 0.0000 -1.0000
vn -0.0000 -0.9701 0.2425
vn -0.8402 0.4851 0.2425
usemtl Material.001
s off
f 1/1/1 4/2/1 2/3/1
f 1/4/2 2/5/2 3/6/2
usemtl Material.002
f 2/3/3 4/2/3 3/7/3
usemtl Material.003
f 3/7/4 4/2/4 1/1/4
